/* XPM */
static char * sb_xpm[] = {
"64 64 174 2",
"  	c None",
". 	c #0B7EC0",
"+ 	c #0C7FC1",
"@ 	c #0A7DBF",
"# 	c #0C7FC0",
"$ 	c #0B7FC1",
"% 	c #218AC6",
"& 	c #1684C3",
"* 	c #1885C4",
"= 	c #1784C3",
"- 	c #1985C4",
"; 	c #1986C4",
"> 	c #1282C2",
", 	c #2089C6",
"' 	c #5AA8D4",
") 	c #AED4E9",
"! 	c #61ABD6",
"~ 	c #66AED7",
"{ 	c #65ADD7",
"] 	c #67AED7",
"^ 	c #66AED8",
"/ 	c #60ABD6",
"( 	c #8CC2E1",
"_ 	c #78B7DC",
": 	c #CDE4F2",
"< 	c #FFFFFF",
"[ 	c #FDFDFD",
"} 	c #FEFEFE",
"| 	c #F6FAFC",
"1 	c #CAE3F1",
"2 	c #3192CA",
"3 	c #EFF6FB",
"4 	c #E5F1F8",
"5 	c #3A97CC",
"6 	c #3092CA",
"7 	c #ECF5F9",
"8 	c #8DC2E1",
"9 	c #ADD3EA",
"0 	c #EAF3F8",
"a 	c #4CA1D1",
"b 	c #3D98CD",
"c 	c #B3D7EB",
"d 	c #EAF3F9",
"e 	c #3F99CD",
"f 	c #6EB2D9",
"g 	c #63ADD7",
"h 	c #53A4D2",
"i 	c #F7FAFC",
"j 	c #77B7DC",
"k 	c #9DCBE5",
"l 	c #B2D6EB",
"m 	c #1785C3",
"n 	c #E9F3F9",
"o 	c #3091CA",
"p 	c #6BB1D9",
"q 	c #82BDDE",
"r 	c #70B3DA",
"s 	c #E7F2F8",
"t 	c #C9E2F1",
"u 	c #7BB9DC",
"v 	c #D4E8F4",
"w 	c #96C7E3",
"x 	c #8BC1E1",
"y 	c #F9FBFD",
"z 	c #9CCAE5",
"A 	c #1483C3",
"B 	c #54A5D3",
"C 	c #DBECF5",
"D 	c #52A4D2",
"E 	c #BADAEC",
"F 	c #ACD3E9",
"G 	c #2F91C9",
"H 	c #D0E6F2",
"I 	c #EBF4FA",
"J 	c #E9F3F8",
"K 	c #56A6D3",
"L 	c #FDFDFE",
"M 	c #C3DEEE",
"N 	c #B6D7EB",
"O 	c #2D90C9",
"P 	c #B6D8EC",
"Q 	c #1A86C4",
"R 	c #AFD4EA",
"S 	c #B7D9EC",
"T 	c #FAFCFD",
"U 	c #D1E6F2",
"V 	c #CBE3F1",
"W 	c #73B5DB",
"X 	c #0F80C1",
"Y 	c #3494CB",
"Z 	c #F5F9FB",
"` 	c #D8EAF4",
" .	c #0D7FC1",
"..	c #D5E8F3",
"+.	c #FBFCFD",
"@.	c #4EA1D1",
"#.	c #A5CFE7",
"$.	c #B2D6EA",
"%.	c #BFDDEE",
"&.	c #E2EFF7",
"*.	c #1D87C5",
"=.	c #DDEDF5",
"-.	c #3E99CD",
";.	c #71B4DA",
">.	c #AAD2E8",
",.	c #EAF4F9",
"'.	c #248BC7",
").	c #E6F1F8",
"!.	c #8AC1E1",
"~.	c #F1F7FA",
"{.	c #2B8FC8",
"].	c #278DC7",
"^.	c #EBF4F9",
"/.	c #68AFD8",
"(.	c #1C87C5",
"_.	c #1F89C5",
":.	c #9BCAE5",
"<.	c #F9FBFC",
"[.	c #56A5D3",
"}.	c #489ED0",
"|.	c #4DA1D1",
"1.	c #6CB1D9",
"2.	c #61ACD6",
"3.	c #9ECCE6",
"4.	c #E4F0F8",
"5.	c #7FBBDE",
"6.	c #76B6DB",
"7.	c #9CCBE5",
"8.	c #81BCDE",
"9.	c #55A5D3",
"0.	c #69B0D8",
"a.	c #A8D1E8",
"b.	c #9ECBE5",
"c.	c #A7D0E8",
"d.	c #BEDCED",
"e.	c #268CC7",
"f.	c #429BCE",
"g.	c #479ED0",
"h.	c #449CCF",
"i.	c #439BCE",
"j.	c #469DCF",
"k.	c #459DCF",
"l.	c #439CCF",
"m.	c #479ECF",
"n.	c #4A9FD0",
"o.	c #ABD2E8",
"p.	c #A1CDE7",
"q.	c #268DC7",
"r.	c #1584C3",
"s.	c #87BFE0",
"t.	c #1D88C5",
"u.	c #1181C2",
"v.	c #4FA2D2",
"w.	c #1081C2",
"x.	c #5DAAD5",
"y.	c #3594CB",
"z.	c #6FB3DA",
"A.	c #2C8FC9",
"B.	c #E5F1F7",
"C.	c #258CC7",
"D.	c #228AC6",
"E.	c #8EC3E2",
"F.	c #1182C2",
"G.	c #6BB0D8",
"H.	c #1E88C5",
"I.	c #489FD0",
"J.	c #75B6DB",
"K.	c #6DB1D9",
"L.	c #6DB2D9",
"M.	c #69AFD8",
"N.	c #52A3D2",
"O.	c #1383C2",
"P.	c #1583C3",
"Q.	c #3B97CC",
"                                                      . . + . . . . . . .                                                       ",
"                                            @ @ + # . . + . + + + + + + + + . . . +                                             ",
"                                        $ + + + . + + + + + + + + + + + + + . + + + . .                                         ",
"                                    . . + $ + + + + + + + + + + + + + + + + + + + . + + . .                                     ",
"                                . . + . + + + + + + + + + + + + + + + + + + + + + + + + . + . +                                 ",
"                            @ . + + . + + + + + + + + + + + + + + + + + + + + + + + + + + + + + . @                             ",
"                          . + + + + + + + + + + + + + + + + + + + + + + + + + + + + + + + + + + + + .                           ",
"                        . . + + + + + + + + + + + + + + + + + + + + + + + + + + + + + + + + + + + + . .                         ",
"                    . + + + + + + + + + + + + + + + + + + + + + + + + + + + + + + + + + + + + + + + . + . .                     ",
"                  @ + . + + + + + + + + + + + + + + + + + + + + + + + + + + + + + + + + + + + + + + + . + . @                   ",
"                . + . + + + + + + + + + + + + + + + + + + + + + + + + + + + + + + + + + + + + + + + + + + . + +                 ",
"                + . + + + + + + + + + + + + + + + + + + + + + + + + + + + + + + + + + + + + + + + + + + + + + +                 ",
"              . + + + + + + + + + + + + + + + + + + + + + + + + + + + + + + + + + + + + + + + + + + + + + + + + .               ",
"            . . + + + + + + + + + + + + + + + + + + + + + + + + + + + + + + + + + + + + + + + + + + + + + + + + . .             ",
"          @ + + + + + + + + + + + + + + + + + + + + + + + + + + + + + + + + + + + + + + + + + + + + + + + + + + + + .           ",
"          . + + + + + + + + + + + + + + + + + + + + + + + + + + + + + + + + + + + + + + + + + + + + + + + + + + + + .           ",
"        . + + + + + + + + + + + + + + + + % & * * * = - * * * * * * * = ; ; = * * > , + + + + + + + + + + + + + + + + .         ",
"        . + + + + + + + + + + + + + + + ' ) ! ~ ~ ~ { ] { ~ { { { { { { ^ ^ { { ~ / ( _ + + + + + + + + + + + + + + + .         ",
"      . + . + + + + + + + + + + + + + + : < < < < < < < < < < < [ < < < < < < < < } < } + + + + + + + + + + + + + + . + +       ",
"      . . + + + + + + + + + + + + + + + | < < < < < < < < < < 1 2 3 [ < < < < < < < } } + + + + + + + + + + + + + + + + .       ",
"    $ + + + + + + + + + + + + + + + + + } < < < < < < < < } 4 ; + 5 | < < < < < < < } < 6 + + + + + + + + + + + + + + + + .     ",
"    + $ + + + + + + + + + + + + + + + * } } < < < < < < < < 7 8 & 9 0 < } < < } < < < < a + + + + + + + + + + + + + + + + .     ",
"  @ + + + + + + + + + + + + + + + + + b < < < < < [ < < < < < c = d < e + + f < < < < } g + + + + + + + + + + + + + + + + + .   ",
"  @ + + + + + + + + + + + + + + + + + h < < < < [ < i j k } < l m n } o + + p < < < < < q + + + + + + + + + + + + + + + + + .   ",
"  + . + + + + + + + + + + + + + + + + r } < < < < s + + + _ < l m n < t u j v } < < < < w + + + + + + + + + + + + + + + + + .   ",
"  # + + + + + + + + + + + + + + + + + x < < < < } y z A B C < l m n < } D E < } < < < } F + + + + + + + + + + + + + + + + . .   ",
"  . + + + + + + + + + + + + + + + + + k < < < < < [ < G H < < l = I J g K L [ < < < < < M + + + + + + + + + + + + + + + + + .   ",
". . + + + + + + + + + + + + + + + + + N < < < < < < < O P < < l Q R O S T < < < < < < < U + + + + + + + + + + + + + + + + + . . ",
". + + + + + + + + + + + + + + + + + + V < < < < < < < ] W } < l X Y Z < } < < < < < < < ` > + + + + + + + + + + + + + + + + . + ",
"+ . + + + + + + + + + + + + + + + +  ...} < < < < < < +.@.#.< $.+ %.< [ < < < < < < < < &.*.+ + + + + + + + + + + + + + + + + + ",
"+ . + + + + + + + + + + + + + + + + * =.< < < < < < } } y -.;.>.; ,.} < < < < < < < < < J '.+ + + + + + + + + + + + + + + + + . ",
". + + + + + + + + + + + + + + + + + , ).< < < < < < < < < } !.& , n < < < < < < < < < < ~.{.+ + + + + + + + + + + + + + + + + . ",
". + + + + + + + + + + + + + + + + + ].^.< < < < < < < < < [ < /.(.C < } < < < < < < < < T Y + + + + + + + + + + + + + + + + + . ",
". + + + + + + + + + + + + + + + + + G Z < < < < < < < < [ < p _.+ G :.< < < < < < < < < } -.+ + + + + + + + + + + + + + + + + . ",
". + + + + + + + + + + + + + + + + + 5 [ < < < < < < < < < i + + + + {.<.< < < < < < < < } [.+ + + + + + + + + + + + + + + + + + ",
". + + + + + + + + + + + + + + + + + }.} < < < < < < < < < } |.+ + + :.} < < < < < < < < < 1.+ + + + + + + + + + + + + + + + . + ",
". + + + + + + + + + + + + + + + + + 2.} < < < < < < < < < [ < 3.:.4.< } < < < < < < < < < 5.+ + + + + + + + + + + + + + + + + . ",
"  + + + + + + + + + + + + + + + + + 6.< < < < < < < < < < < < < < < < < < < < < < < < < < 7.+ + + + + + + + + + + + + + + + .   ",
"  . . + + + + + + + + + + + + + + + ( 8.9.K K K K K K K K K K K K K K K K K K K K K K K 0.a.+ + + + + + + + + + + + + + + . +   ",
"  . + + + + + + + + + + + + + + + + b., + + + + + + + + + + + + + + + + + + + + + + + + + c.+ + + + + + + + + + + + + + + + .   ",
"  . + + + + + + + + + + + + + + + + d.e.Y }.f.g.h.h.g.i.j.j.k.g.l.h.k.l.k.m.g.m.k.m.h.n._.o.+ + + + + + + + + + + + + + + + @   ",
"  + + . + + + + + + + + + + + + + + p.+ % e.q.e.e.e.e.e.q.e.e.e.e.e.e.e.e.e.e.e.e.e.e.e.r.s.t.+ + + + + + + + + + + + + . + .   ",
"    . + + + + + + + + + + + + + + u.v.+ + + + + + + + + + + + + + + + + + + + + + t.w.+ + x.y.+ + + + + + + + + + + + + + .     ",
"    . + + + + + + + + + + + + + + r.z.+ + + + + + + + + + + + + + + + + + + + + A.B.F + + B C.+ + + + + + + + + + + + + + $     ",
"      . . + + + + + + + + + + + + = ^ D.+ + + + + + + + + + + + + + + + + + + + ; E.z.+ F.G.H.+ + + + + + + + + + + + + .       ",
"      . + + + + + + + + + + + + + X I.J.p K.L.L.L.L.L.L.L.L.L.L.L.L.L.L.L.L.L.L.1./.M.1.z.N.O.+ + + + + + + + + + + + + @       ",
"        . + + + + + + + + + + + + + P.2 Q.Q.Q.Q.Q.Q.Q.Q.Q.Q.Q.Q.Q.Q.Q.Q.Q.Q.Q.Q.Q.Q.Q.Q.Y * + + + + + + + + + + + + + +         ",
"        + + + + + + + + + + + + + + + + + + + + + + + + + + + + + + + + + + + + + + + + + + + + + + + + + + + + + + . +         ",
"          . + + + + + + + + + + + + + + + + + + + + + + + + + + + + + + + + + + + + + + + + + + + + + + + + + + + + .           ",
"          @ + + + + + + + + + + + + + + + + + + + + + + + + + + + + + + + + + + + + + + + + + + + + + + + + + + . + @           ",
"            . . . + + + + + + + + + + + + + + + + + + + + + + + + + + + + + + + + + + + + + + + + + + + + + + + . .             ",
"              . + . + + + + + + + + + + + + + + + + + + + + + + + + + + + + + + + + + + + + + + + + + + + + . + .               ",
"                . + + + + + + + + + + + + + + + + + + + + + + + + + + + + + + + + + + + + + + + + + + + + + + .                 ",
"                . . . + + + + + + + + + + + + + + + + + + + + + + + + + + + + + + + + + + + + + + + + + + . + +                 ",
"                  @ + + + + + + + + + + + + + + + + + + + + + + + + + + + + + + + + + + + + + + + + + . + + @                   ",
"                    + + + + + + + + + + + + + + + + + + + + + + + + + + + + + + + + + + + + + + + + + + . +                     ",
"                        . . + + + + + + + + + + + + + + + + + + + + + + + + + + + + + + + + + + + . . .                         ",
"                          . + + + + + + + + + + + + + + + + + + + + + + + + + + + + + + + + + + + + .                           ",
"                            . . + + . + + + + + + + + + + + + + + + + + + + + + + + + + + + + . . @                             ",
"                                . . + + + + + + + + + + + + + + + + + + + + + + + + + + + + + +                                 ",
"                                    + . + + + + + + + + + + + + + + + + + + + + + . + + . @                                     ",
"                                        . . + + + . + + + + + + + + + + + + . + + + . $                                         ",
"                                            . . . . . . . + + + + + + . + . + . @ .                                             ",
"                                                      . + + + + . . + + .                                                       "};
